<?xml version="1.0" encoding="UTF-8"?>
<svg width="1000" height="750" xmlns="http://www.w3.org/2000/svg">
    <defs>
        <!-- Gradient for Azure element backgrounds -->
        <linearGradient id="azureGradient" x1="0%" y1="0%" x2="100%" y2="100%">
            <stop offset="0%" style="stop-color:#0072C6;stop-opacity:0.1"/>
            <stop offset="100%" style="stop-color:#0072C6;stop-opacity:0.3"/>
        </linearGradient>
        
        <!-- Gradient for GitHub element backgrounds -->
        <linearGradient id="githubGradient" x1="0%" y1="0%" x2="100%" y2="100%">
            <stop offset="0%" style="stop-color:#2B3137;stop-opacity:0.1"/>
            <stop offset="100%" style="stop-color:#2B3137;stop-opacity:0.3"/>
        </linearGradient>
        
        <!-- Shadow effect -->
        <filter id="shadow" x="-10%" y="-10%" width="120%" height="120%">
            <feDropShadow dx="3" dy="3" stdDeviation="3" flood-opacity="0.2"/>
        </filter>
        
        <!-- Arrow marker -->
        <marker id="arrowhead" markerWidth="10" markerHeight="7" refX="10" refY="3.5" orient="auto">
            <polygon points="0 0, 10 3.5, 0 7" fill="#666"/>
        </marker>
    </defs>
    
    <!-- Background -->
    <rect width="1000" height="750" fill="#f8f9fa"/>
    
    <!-- Title -->
    <text x="500" y="50" font-family="Arial, sans-serif" font-size="24" text-anchor="middle" font-weight="bold" fill="#333">GitHub Actions for Multi-Region Deployments</text>
    <text x="500" y="80" font-family="Arial, sans-serif" font-size="16" text-anchor="middle" fill="#666">Reference Architecture</text>
    
    <!-- GitHub Section -->
    <rect x="50" y="120" width="250" height="560" rx="10" ry="10" fill="url(#githubGradient)" stroke="#2B3137" stroke-width="2" filter="url(#shadow)"/>
    <text x="175" y="150" font-family="Arial, sans-serif" font-size="18" text-anchor="middle" font-weight="bold" fill="#333">GitHub</text>
    
    <!-- Repository -->
    <rect x="80" y="180" width="190" height="90" rx="5" ry="5" fill="#fff" stroke="#2B3137" stroke-width="1"/>
    <text x="175" y="205" font-family="Arial, sans-serif" font-size="14" text-anchor="middle" font-weight="bold" fill="#333">Application Repository</text>
    <text x="175" y="225" font-family="Arial, sans-serif" font-size="12" text-anchor="middle" fill="#666">- Source Code</text>
    <text x="175" y="245" font-family="Arial, sans-serif" font-size="12" text-anchor="middle" fill="#666">- IaC Templates</text>
    <text x="175" y="265" font-family="Arial, sans-serif" font-size="12" text-anchor="middle" fill="#666">- Workflow YAML Files</text>
    
    <!-- GitHub Actions -->
    <rect x="80" y="300" width="190" height="170" rx="5" ry="5" fill="#fff" stroke="#2B3137" stroke-width="1"/>
    <text x="175" y="325" font-family="Arial, sans-serif" font-size="14" text-anchor="middle" font-weight="bold" fill="#333">GitHub Actions Workflow</text>
    <text x="175" y="345" font-family="Arial, sans-serif" font-size="12" text-anchor="middle" fill="#666">1. Build & Test</text>
    <text x="175" y="365" font-family="Arial, sans-serif" font-size="12" text-anchor="middle" fill="#666">2. Create Deployment Package</text>
    <text x="175" y="385" font-family="Arial, sans-serif" font-size="12" text-anchor="middle" fill="#666">3. Deploy (Matrix Strategy)</text>
    <text x="175" y="405" font-family="Arial, sans-serif" font-size="12" text-anchor="middle" fill="#666">4. Verify Deployments</text>
    <text x="175" y="425" font-family="Arial, sans-serif" font-size="12" text-anchor="middle" fill="#666">5. Configure Traffic Manager</text>
    <text x="175" y="445" font-family="Arial, sans-serif" font-size="12" text-anchor="middle" fill="#666">6. Run Post-Deployment Tests</text>
    
    <!-- Secrets -->
    <rect x="80" y="500" width="190" height="110" rx="5" ry="5" fill="#fff" stroke="#2B3137" stroke-width="1"/>
    <text x="175" y="525" font-family="Arial, sans-serif" font-size="14" text-anchor="middle" font-weight="bold" fill="#333">GitHub Secrets</text>
    <text x="175" y="545" font-family="Arial, sans-serif" font-size="12" text-anchor="middle" fill="#666">- AZURE_CREDENTIALS</text>
    <text x="175" y="565" font-family="Arial, sans-serif" font-size="12" text-anchor="middle" fill="#666">- AZURE_SUBSCRIPTION_ID</text>
    <text x="175" y="585" font-family="Arial, sans-serif" font-size="12" text-anchor="middle" fill="#666">- Region-Specific Secrets</text>
    <text x="175" y="605" font-family="Arial, sans-serif" font-size="12" text-anchor="middle" fill="#666">- Database Credentials</text>
    
    <!-- Runners -->
    <rect x="80" y="640" width="190" height="80" rx="5" ry="5" fill="#fff" stroke="#2B3137" stroke-width="1"/>
    <text x="175" y="665" font-family="Arial, sans-serif" font-size="14" text-anchor="middle" font-weight="bold" fill="#333">GitHub Runners</text>
    <text x="175" y="685" font-family="Arial, sans-serif" font-size="12" text-anchor="middle" fill="#666">- GitHub-hosted Runners</text>
    <text x="175" y="705" font-family="Arial, sans-serif" font-size="12" text-anchor="middle" fill="#666">- Self-hosted Runners</text>
    
    <!-- Azure Global Section -->
    <rect x="350" y="120" width="600" height="150" rx="10" ry="10" fill="url(#azureGradient)" stroke="#0072C6" stroke-width="2" filter="url(#shadow)"/>
    <text x="650" y="150" font-family="Arial, sans-serif" font-size="18" text-anchor="middle" font-weight="bold" fill="#333">Azure Global Resources</text>
    
    <!-- Traffic Manager -->
    <rect x="380" y="180" width="240" height="70" rx="5" ry="5" fill="#fff" stroke="#0072C6" stroke-width="1"/>
    <text x="500" y="205" font-family="Arial, sans-serif" font-size="14" text-anchor="middle" font-weight="bold" fill="#333">Azure Traffic Manager</text>
    <text x="500" y="225" font-family="Arial, sans-serif" font-size="12" text-anchor="middle" fill="#666">Global Load Balancing</text>
    <text x="500" y="245" font-family="Arial, sans-serif" font-size="12" text-anchor="middle" fill="#666">Performance / Priority Routing</text>
    
    <!-- Log Analytics -->
    <rect x="680" y="180" width="240" height="70" rx="5" ry="5" fill="#fff" stroke="#0072C6" stroke-width="1"/>
    <text x="800" y="205" font-family="Arial, sans-serif" font-size="14" text-anchor="middle" font-weight="bold" fill="#333">Log Analytics Workspace</text>
    <text x="800" y="225" font-family="Arial, sans-serif" font-size="12" text-anchor="middle" fill="#666">Centralized Logging</text>
    <text x="800" y="245" font-family="Arial, sans-serif" font-size="12" text-anchor="middle" fill="#666">Cross-Region Monitoring</text>
    
    <!-- Region 1: East US -->
    <rect x="350" y="300" width="180" height="380" rx="10" ry="10" fill="url(#azureGradient)" stroke="#0072C6" stroke-width="2" filter="url(#shadow)"/>
    <text x="440" y="330" font-family="Arial, sans-serif" font-size="18" text-anchor="middle" font-weight="bold" fill="#333">East US</text>
    
    <!-- App Service East US -->
    <rect x="370" y="360" width="140" height="60" rx="5" ry="5" fill="#fff" stroke="#0072C6" stroke-width="1"/>
    <text x="440" y="385" font-family="Arial, sans-serif" font-size="14" text-anchor="middle" font-weight="bold" fill="#333">App Service</text>
    <text x="440" y="405" font-family="Arial, sans-serif" font-size="12" text-anchor="middle" fill="#666">Production Slot</text>
    
    <!-- Database East US -->
    <rect x="370" y="440" width="140" height="60" rx="5" ry="5" fill="#fff" stroke="#0072C6" stroke-width="1"/>
    <text x="440" y="465" font-family="Arial, sans-serif" font-size="14" text-anchor="middle" font-weight="bold" fill="#333">Database</text>
    <text x="440" y="485" font-family="Arial, sans-serif" font-size="12" text-anchor="middle" fill="#666">Primary/Read-Write</text>
    
    <!-- Storage East US -->
    <rect x="370" y="520" width="140" height="60" rx="5" ry="5" fill="#fff" stroke="#0072C6" stroke-width="1"/>
    <text x="440" y="545" font-family="Arial, sans-serif" font-size="14" text-anchor="middle" font-weight="bold" fill="#333">Storage Account</text>
    <text x="440" y="565" font-family="Arial, sans-serif" font-size="12" text-anchor="middle" fill="#666">GRS Replication</text>
    
    <!-- Monitoring East US -->
    <rect x="370" y="600" width="140" height="60" rx="5" ry="5" fill="#fff" stroke="#0072C6" stroke-width="1"/>
    <text x="440" y="625" font-family="Arial, sans-serif" font-size="14" text-anchor="middle" font-weight="bold" fill="#333">Application Insights</text>
    <text x="440" y="645" font-family="Arial, sans-serif" font-size="12" text-anchor="middle" fill="#666">Region Monitoring</text>
    
    <!-- Region 2: West Europe -->
    <rect x="560" y="300" width="180" height="380" rx="10" ry="10" fill="url(#azureGradient)" stroke="#0072C6" stroke-width="2" filter="url(#shadow)"/>
    <text x="650" y="330" font-family="Arial, sans-serif" font-size="18" text-anchor="middle" font-weight="bold" fill="#333">West Europe</text>
    
    <!-- App Service West Europe -->
    <rect x="580" y="360" width="140" height="60" rx="5" ry="5" fill="#fff" stroke="#0072C6" stroke-width="1"/>
    <text x="650" y="385" font-family="Arial, sans-serif" font-size="14" text-anchor="middle" font-weight="bold" fill="#333">App Service</text>
    <text x="650" y="405" font-family="Arial, sans-serif" font-size="12" text-anchor="middle" fill="#666">Production Slot</text>
    
    <!-- Database West Europe -->
    <rect x="580" y="440" width="140" height="60" rx="5" ry="5" fill="#fff" stroke="#0072C6" stroke-width="1"/>
    <text x="650" y="465" font-family="Arial, sans-serif" font-size="14" text-anchor="middle" font-weight="bold" fill="#333">Database</text>
    <text x="650" y="485" font-family="Arial, sans-serif" font-size="12" text-anchor="middle" fill="#666">Read Replica</text>
    
    <!-- Storage West Europe -->
    <rect x="580" y="520" width="140" height="60" rx="5" ry="5" fill="#fff" stroke="#0072C6" stroke-width="1"/>
    <text x="650" y="545" font-family="Arial, sans-serif" font-size="14" text-anchor="middle" font-weight="bold" fill="#333">Storage Account</text>
    <text x="650" y="565" font-family="Arial, sans-serif" font-size="12" text-anchor="middle" fill="#666">GRS Replication</text>
    
    <!-- Monitoring West Europe -->
    <rect x="580" y="600" width="140" height="60" rx="5" ry="5" fill="#fff" stroke="#0072C6" stroke-width="1"/>
    <text x="650" y="625" font-family="Arial, sans-serif" font-size="14" text-anchor="middle" font-weight="bold" fill="#333">Application Insights</text>
    <text x="650" y="645" font-family="Arial, sans-serif" font-size="12" text-anchor="middle" fill="#666">Region Monitoring</text>
    
    <!-- Region 3: Southeast Asia -->
    <rect x="770" y="300" width="180" height="380" rx="10" ry="10" fill="url(#azureGradient)" stroke="#0072C6" stroke-width="2" filter="url(#shadow)"/>
    <text x="860" y="330" font-family="Arial, sans-serif" font-size="18" text-anchor="middle" font-weight="bold" fill="#333">Southeast Asia</text>
    
    <!-- App Service Southeast Asia -->
    <rect x="790" y="360" width="140" height="60" rx="5" ry="5" fill="#fff" stroke="#0072C6" stroke-width="1"/>
    <text x="860" y="385" font-family="Arial, sans-serif" font-size="14" text-anchor="middle" font-weight="bold" fill="#333">App Service</text>
    <text x="860" y="405" font-family="Arial, sans-serif" font-size="12" text-anchor="middle" fill="#666">Production Slot</text>
    
    <!-- Database Southeast Asia -->
    <rect x="790" y="440" width="140" height="60" rx="5" ry="5" fill="#fff" stroke="#0072C6" stroke-width="1"/>
    <text x="860" y="465" font-family="Arial, sans-serif" font-size="14" text-anchor="middle" font-weight="bold" fill="#333">Database</text>
    <text x="860" y="485" font-family="Arial, sans-serif" font-size="12" text-anchor="middle" fill="#666">Read Replica</text>
    
    <!-- Storage Southeast Asia -->
    <rect x="790" y="520" width="140" height="60" rx="5" ry="5" fill="#fff" stroke="#0072C6" stroke-width="1"/>
    <text x="860" y="545" font-family="Arial, sans-serif" font-size="14" text-anchor="middle" font-weight="bold" fill="#333">Storage Account</text>
    <text x="860" y="565" font-family="Arial, sans-serif" font-size="12" text-anchor="middle" fill="#666">GRS Replication</text>
    
    <!-- Monitoring Southeast Asia -->
    <rect x="790" y="600" width="140" height="60" rx="5" ry="5" fill="#fff" stroke="#0072C6" stroke-width="1"/>
    <text x="860" y="625" font-family="Arial, sans-serif" font-size="14" text-anchor="middle" font-weight="bold" fill="#333">Application Insights</text>
    <text x="860" y="645" font-family="Arial, sans-serif" font-size="12" text-anchor="middle" fill="#666">Region Monitoring</text>
    
    <!-- Connections -->
    <!-- GitHub to Azure Global -->
    <line x1="270" y1="200" x2="350" y2="200" stroke="#666" stroke-width="2" marker-end="url(#arrowhead)"/>
    <line x1="270" y1="385" x2="320" y2="385" stroke="#666" stroke-width="2"/>
    <line x1="320" y1="385" x2="320" y2="200" stroke="#666" stroke-width="2"/>
    <line x1="320" y1="200" x2="350" y2="200" stroke="#666" stroke-width="2" marker-end="url(#arrowhead)"/>
    
    <!-- GitHub Actions to Regions -->
    <line x1="270" y1="385" x2="350" y2="385" stroke="#666" stroke-width="2" marker-end="url(#arrowhead)"/>
    <line x1="270" y1="385" x2="300" y2="385" stroke="#666" stroke-width="2"/>
    <line x1="300" y1="385" x2="300" y2="500" stroke="#666" stroke-width="2"/>
    <line x1="300" y1="500" x2="350" y2="500" stroke="#666" stroke-width="2" marker-end="url(#arrowhead)"/>
    <line x1="300" y1="500" x2="300" y2="600" stroke="#666" stroke-width="2"/>
    <line x1="300" y1="600" x2="350" y2="600" stroke="#666" stroke-width="2" marker-end="url(#arrowhead)"/>
    
    <line x1="270" y1="385" x2="320" y2="385" stroke="#666" stroke-width="2"/>
    <line x1="320" y1="385" x2="320" y2="650" stroke="#666" stroke-width="2"/>
    <line x1="320" y1="650" x2="560" y2="650" stroke="#666" stroke-width="2" marker-end="url(#arrowhead)"/>
    <line x1="320" y1="650" x2="770" y2="650" stroke="#666" stroke-width="2" marker-end="url(#arrowhead)"/>
    
    <!-- Traffic Manager to Regions -->
    <line x1="500" y1="250" x2="500" y2="300" stroke="#666" stroke-width="2" marker-end="url(#arrowhead)"/>
    <line x1="500" y1="270" x2="650" y2="270" stroke="#666" stroke-width="2"/>
    <line x1="650" y1="270" x2="650" y2="300" stroke="#666" stroke-width="2" marker-end="url(#arrowhead)"/>
    <line x1="650" y1="270" x2="860" y2="270" stroke="#666" stroke-width="2"/>
    <line x1="860" y1="270" x2="860" y2="300" stroke="#666" stroke-width="2" marker-end="url(#arrowhead)"/>
    
    <!-- Regions to Log Analytics -->
    <line x1="440" y1="600" x2="440" y2="580" stroke="#666" stroke-width="2"/>
    <line x1="440" y1="580" x2="850" y2="580" stroke="#666" stroke-width="2"/>
    <line x1="850" y1="580" x2="850" y2="250" stroke="#666" stroke-width="2"/>
    <line x1="850" y1="250" x2="800" y2="250" stroke="#666" stroke-width="2" marker-end="url(#arrowhead)"/>
    
    <line x1="650" y1="600" x2="650" y2="570" stroke="#666" stroke-width="2"/>
    <line x1="650" y1="570" x2="840" y2="570" stroke="#666" stroke-width="2"/>
    <line x1="840" y1="570" x2="840" y2="255" stroke="#666" stroke-width="2"/>
    <line x1="840" y1="255" x2="800" y2="255" stroke="#666" stroke-width="2" marker-end="url(#arrowhead)"/>
    
    <line x1="860" y1="600" x2="860" y2="560" stroke="#666" stroke-width="2"/>
    <line x1="860" y1="560" x2="830" y2="560" stroke="#666" stroke-width="2"/>
    <line x1="830" y1="560" x2="830" y2="260" stroke="#666" stroke-width="2"/>
    <line x1="830" y1="260" x2="800" y2="260" stroke="#666" stroke-width="2" marker-end="url(#arrowhead)"/>
    
    <!-- Database Replication -->
    <line x1="510" y1="470" x2="580" y2="470" stroke="#666" stroke-width="2" marker-end="url(#arrowhead)"/>
    <line x1="720" y1="470" x2="790" y2="470" stroke="#666" stroke-width="2" marker-end="url(#arrowhead)"/>
    
    <!-- Legend -->
    <rect x="50" y="50" width="200" height="60" rx="5" ry="5" fill="#fff" stroke="#ccc" stroke-width="1"/>
    <rect x="60" y="60" width="15" height="15" fill="url(#githubGradient)" stroke="#2B3137" stroke-width="1"/>
    <text x="85" y="73" font-family="Arial, sans-serif" font-size="12" fill="#333">GitHub Resources</text>
    <rect x="60" y="85" width="15" height="15" fill="url(#azureGradient)" stroke="#0072C6" stroke-width="1"/>
    <text x="85" y="98" font-family="Arial, sans-serif" font-size="12" fill="#333">Azure Resources</text>
    
    <!-- Notes -->
    <text x="500" y="730" font-family="Arial, sans-serif" font-size="12" text-anchor="middle" fill="#666">
        Notes: This architecture shows a typical multi-region deployment using GitHub Actions with matrix strategy
    </text>
</svg>
